<mxfile host="app.diagrams.net" agent="Mozilla/5.0 (Windows NT 10.0; Win64; x64) AppleWebKit/537.36 (KHTML, like Gecko) Chrome/127.0.0.0 Safari/537.36 Edg/127.0.0.0" version="24.7.7">
  <diagram name="Page-1" id="xRs-Yh2YdR0fayglHLg2">
    <mxGraphModel dx="773" dy="393" grid="1" gridSize="10" guides="1" tooltips="1" connect="1" arrows="1" fold="1" page="1" pageScale="1" pageWidth="850" pageHeight="1100" math="0" shadow="0">
      <root>
        <mxCell id="0" />
        <mxCell id="1" parent="0" />
        <mxCell id="GhGVFZuzvMwIEz0DLh7X-33" value="" style="shape=or;whiteSpace=wrap;html=1;rotation=-90;fillColor=#1ba1e2;fontColor=#ffffff;strokeColor=none;opacity=80;" parent="1" vertex="1">
          <mxGeometry x="159.125" y="158.37" width="21" height="139.25" as="geometry" />
        </mxCell>
        <mxCell id="GhGVFZuzvMwIEz0DLh7X-34" value="" style="triangle;whiteSpace=wrap;html=1;rotation=-90;strokeColor=#2D7600;fillColor=#60a917;fontColor=#ffffff;" parent="1" vertex="1">
          <mxGeometry x="128.755" y="369" width="86" height="56" as="geometry" />
        </mxCell>
        <mxCell id="GhGVFZuzvMwIEz0DLh7X-35" value="" style="ellipse;whiteSpace=wrap;html=1;aspect=fixed;fillColor=#e3c800;fontColor=#000000;strokeColor=#B09500;" parent="1" vertex="1">
          <mxGeometry x="178.755" y="330" width="10" height="10" as="geometry" />
        </mxCell>
        <mxCell id="GhGVFZuzvMwIEz0DLh7X-36" value="" style="ellipse;whiteSpace=wrap;html=1;aspect=fixed;fillColor=#e3c800;fontColor=#000000;strokeColor=#B09500;" parent="1" vertex="1">
          <mxGeometry x="168.755" y="340" width="10" height="10" as="geometry" />
        </mxCell>
        <mxCell id="GhGVFZuzvMwIEz0DLh7X-37" value="" style="ellipse;whiteSpace=wrap;html=1;aspect=fixed;fillColor=#e3c800;fontColor=#000000;strokeColor=#B09500;" parent="1" vertex="1">
          <mxGeometry x="178.755" y="350" width="10" height="10" as="geometry" />
        </mxCell>
        <mxCell id="GhGVFZuzvMwIEz0DLh7X-38" value="" style="ellipse;whiteSpace=wrap;html=1;aspect=fixed;fillColor=#e3c800;fontColor=#000000;strokeColor=#B09500;" parent="1" vertex="1">
          <mxGeometry x="168.755" y="350" width="10" height="10" as="geometry" />
        </mxCell>
        <mxCell id="GhGVFZuzvMwIEz0DLh7X-39" value="" style="ellipse;whiteSpace=wrap;html=1;aspect=fixed;fillColor=#e3c800;fontColor=#000000;strokeColor=#B09500;" parent="1" vertex="1">
          <mxGeometry x="158.755" y="340" width="10" height="10" as="geometry" />
        </mxCell>
        <mxCell id="GhGVFZuzvMwIEz0DLh7X-40" value="" style="ellipse;whiteSpace=wrap;html=1;aspect=fixed;fillColor=#e3c800;fontColor=#000000;strokeColor=#B09500;" parent="1" vertex="1">
          <mxGeometry x="164.755" y="330" width="10" height="10" as="geometry" />
        </mxCell>
        <mxCell id="GhGVFZuzvMwIEz0DLh7X-41" value="" style="ellipse;whiteSpace=wrap;html=1;aspect=fixed;fillColor=#e3c800;fontColor=#000000;strokeColor=#B09500;" parent="1" vertex="1">
          <mxGeometry x="158.755" y="350" width="10" height="10" as="geometry" />
        </mxCell>
        <mxCell id="GhGVFZuzvMwIEz0DLh7X-42" value="" style="ellipse;whiteSpace=wrap;html=1;aspect=fixed;fillColor=#e3c800;fontColor=#000000;strokeColor=#B09500;" parent="1" vertex="1">
          <mxGeometry x="164.755" y="360" width="10" height="10" as="geometry" />
        </mxCell>
        <mxCell id="GhGVFZuzvMwIEz0DLh7X-43" value="" style="shape=offPageConnector;whiteSpace=wrap;html=1;size=0.6666666666666666;strokeColor=#005700;fillColor=#008a00;fontColor=#ffffff;" parent="1" vertex="1">
          <mxGeometry x="132.255" y="188" width="79" height="150" as="geometry" />
        </mxCell>
        <mxCell id="GhGVFZuzvMwIEz0DLh7X-44" value="" style="shape=or;whiteSpace=wrap;html=1;rotation=90;fillColor=#1ba1e2;fontColor=#ffffff;strokeColor=none;opacity=80;strokeWidth=0;" parent="1" vertex="1">
          <mxGeometry x="158.825" y="179.56" width="21.75" height="139.13" as="geometry" />
        </mxCell>
        <mxCell id="GhGVFZuzvMwIEz0DLh7X-45" value="&lt;font style=&quot;font-size: 18px;&quot;&gt;&lt;b&gt;Lens&lt;/b&gt;&lt;/font&gt;" style="text;html=1;align=center;verticalAlign=middle;resizable=0;points=[];autosize=1;strokeColor=none;fillColor=none;" parent="1" vertex="1">
          <mxGeometry x="263.755" y="219" width="70" height="40" as="geometry" />
        </mxCell>
        <mxCell id="GhGVFZuzvMwIEz0DLh7X-46" value="&lt;font style=&quot;font-size: 18px;&quot;&gt;&lt;b&gt;Laser&lt;/b&gt;&lt;/font&gt;" style="text;html=1;align=center;verticalAlign=middle;resizable=0;points=[];autosize=1;strokeColor=none;fillColor=none;" parent="1" vertex="1">
          <mxGeometry x="267.255" y="179" width="70" height="40" as="geometry" />
        </mxCell>
        <mxCell id="GhGVFZuzvMwIEz0DLh7X-47" value="&lt;font style=&quot;font-size: 18px;&quot;&gt;&lt;b&gt;Particles&lt;/b&gt;&lt;/font&gt;" style="text;html=1;align=center;verticalAlign=middle;resizable=0;points=[];autosize=1;strokeColor=none;fillColor=none;" parent="1" vertex="1">
          <mxGeometry x="265.755" y="325" width="100" height="40" as="geometry" />
        </mxCell>
        <mxCell id="GhGVFZuzvMwIEz0DLh7X-48" value="" style="endArrow=none;html=1;rounded=0;jumpStyle=none;sourcePerimeterSpacing=0;elbow=vertical;startArrow=none;startFill=0;endFill=0;jumpSize=6;" parent="1" edge="1">
          <mxGeometry width="50" height="50" relative="1" as="geometry">
            <mxPoint x="214.25" y="200" as="sourcePoint" />
            <mxPoint x="270" y="200" as="targetPoint" />
          </mxGeometry>
        </mxCell>
        <mxCell id="GhGVFZuzvMwIEz0DLh7X-49" value="" style="endArrow=none;html=1;rounded=0;jumpStyle=none;sourcePerimeterSpacing=0;elbow=vertical;startArrow=none;startFill=0;endFill=0;entryX=-0.007;entryY=0.507;entryDx=0;entryDy=0;entryPerimeter=0;" parent="1" edge="1">
          <mxGeometry width="50" height="50" relative="1" as="geometry">
            <mxPoint x="192.76" y="344.74" as="sourcePoint" />
            <mxPoint x="269.05500000000006" y="345.28" as="targetPoint" />
          </mxGeometry>
        </mxCell>
        <mxCell id="GhGVFZuzvMwIEz0DLh7X-50" value="" style="endArrow=none;html=1;rounded=0;jumpStyle=none;sourcePerimeterSpacing=0;elbow=vertical;startArrow=none;startFill=0;endFill=0;" parent="1" edge="1">
          <mxGeometry width="50" height="50" relative="1" as="geometry">
            <mxPoint x="246.75" y="238.74" as="sourcePoint" />
            <mxPoint x="270" y="239" as="targetPoint" />
          </mxGeometry>
        </mxCell>
      </root>
    </mxGraphModel>
  </diagram>
</mxfile>
